<svg width="132" height="43" viewBox="0 0 132 43" fill="none" xmlns="http://www.w3.org/2000/svg">
<path d="M69.6645 10.9167C69.6645 12.4303 68.4776 13.6491 67.0046 13.6491C65.5316 13.6491 64.3455 12.4303 64.3455 10.9167C64.3455 9.40301 65.4912 8.18419 67.0046 8.18419C68.5193 8.22619 69.6645 9.44543 69.6645 10.9167ZM58.6996 16.4244V17.0973C58.6996 17.0973 57.4318 15.4148 54.7314 15.4148C50.2724 15.4148 46.7942 18.9045 46.7942 23.739C46.7942 28.532 50.2315 32.0632 54.7314 32.0632C57.4726 32.0632 58.6996 30.3396 58.6996 30.3396V31.054C58.6996 31.3904 58.9456 31.642 59.2726 31.642H62.586V15.8339H59.2726C58.9456 15.8352 58.6996 16.13 58.6996 16.4244ZM58.6996 26.5559C58.0865 27.4811 56.8588 28.28 55.3862 28.28C52.768 28.28 50.7628 26.5983 50.7628 23.739C50.7628 20.8801 52.768 19.1985 55.3862 19.1985C56.8183 19.1985 58.1274 20.0393 58.6996 20.9221V26.5559ZM65.0412 15.8352H68.9685V31.6432H65.0412V15.8352ZM123.71 15.4144C121.009 15.4144 119.741 17.0968 119.741 17.0968V8.22619H115.813V31.6432H119.128C119.455 31.6432 119.7 31.3488 119.7 31.0544V30.34C119.7 30.34 120.968 32.0637 123.668 32.0637C128.128 32.0637 131.605 28.5332 131.605 23.7403C131.605 18.9473 128.128 15.4144 123.71 15.4144ZM123.055 28.2375C121.541 28.2375 120.355 27.4396 119.741 26.5139V20.8801C120.355 20.0393 121.664 19.1565 123.055 19.1565C125.673 19.1565 127.678 20.8381 127.678 23.697C127.678 26.5559 125.674 28.2375 123.055 28.2375ZM113.768 22.2682V31.6853H109.84V22.7302C109.84 20.1241 109.022 19.0725 106.814 19.0725C105.628 19.0725 104.4 19.7033 103.622 20.6285V31.6437H99.695V15.8356H102.803C103.131 15.8356 103.376 16.13 103.376 16.4244V17.0973C104.522 15.8776 106.035 15.4148 107.549 15.4148C109.267 15.4148 110.7 15.92 111.845 16.9288C113.236 18.1061 113.768 19.6193 113.768 22.2682ZM90.161 15.4144C87.4615 15.4144 86.1928 17.0968 86.1928 17.0968V8.22619H82.2655V31.6432H85.5789C85.9063 31.6432 86.152 31.3488 86.152 31.0544V30.34C86.152 30.34 87.4206 32.0637 90.1201 32.0637C94.58 32.0637 98.0573 28.5332 98.0573 23.7403C98.0982 18.9469 94.6209 15.4144 90.161 15.4144ZM89.5063 28.2375C87.9928 28.2375 86.8067 27.4396 86.1928 26.5139V20.8801C86.8067 20.0393 88.1158 19.1565 89.5063 19.1565C92.1253 19.1565 94.1296 20.8381 94.1296 23.697C94.1296 26.5559 92.1253 28.2375 89.5063 28.2375ZM78.8695 15.4144C80.0556 15.4144 80.6695 15.6252 80.6695 15.6252V19.3665C80.6695 19.3665 77.3965 18.2312 75.3513 20.6281V31.6848H71.4232V15.8352H74.7375C75.0648 15.8352 75.3096 16.1296 75.3096 16.424V17.0968C76.047 16.2136 77.6426 15.4144 78.8695 15.4144ZM38.0805 30.2136C37.8761 29.7092 37.6714 29.1628 37.467 28.7C37.1392 27.9436 36.8118 27.2283 36.5262 26.5559L36.4853 26.5139C33.6619 20.2073 30.635 13.8175 27.4433 7.51179L27.3207 7.25895C26.985 6.6048 26.6579 5.94606 26.3394 5.28289C25.9299 4.52565 25.5212 3.72766 24.8664 2.97041C23.5573 1.28877 21.6752 0.363525 19.6709 0.363525C17.6249 0.363525 15.784 1.28877 14.4345 2.886C13.8206 3.64241 13.3702 4.44124 12.9615 5.19848C12.6422 5.86123 12.315 6.51996 11.9801 7.17454L11.8571 7.42737C8.70677 13.7331 5.63857 20.1233 2.8156 26.4295L2.77432 26.5131C2.48822 27.1867 2.16043 27.9011 1.83306 28.6571C1.6287 29.1199 1.42434 29.6243 1.21999 30.1708C0.687844 31.726 0.523943 33.1976 0.729116 34.7117C1.17911 37.865 3.2243 40.5126 6.04768 41.6907C7.11156 42.1535 8.21631 42.3635 9.36152 42.3635C9.6889 42.3635 10.0976 42.3215 10.4254 42.2791C11.7758 42.1111 13.1666 41.6491 14.517 40.8503C16.1944 39.8831 17.79 38.4963 19.5899 36.4782C21.3899 38.4963 23.0264 39.8831 24.6629 40.8503C26.0137 41.6491 27.4041 42.1111 28.7541 42.2791C29.0815 42.322 29.491 42.3635 29.8184 42.3635C30.964 42.3635 32.1092 42.1535 33.1318 41.6907C35.9961 40.5126 38.0004 37.823 38.4508 34.7117C38.7757 33.2405 38.6122 31.7697 38.0805 30.2136ZM19.6296 32.3997C17.4201 29.5408 15.988 26.8503 15.4975 24.5807C15.2932 23.6134 15.2519 22.7726 15.3749 22.0158C15.4562 21.343 15.7023 20.7541 16.0297 20.2497C16.807 19.1153 18.1161 18.4001 19.63 18.4001C21.1443 18.4001 22.4943 19.0729 23.2308 20.2497C23.5581 20.7541 23.8034 21.3434 23.8859 22.0158C24.0081 22.773 23.9673 23.6554 23.7629 24.5807C23.2704 26.8083 21.8383 29.4992 19.6296 32.3997ZM35.9527 34.3757C35.6666 36.5618 34.2345 38.4542 32.2302 39.2951C31.2485 39.7151 30.1842 39.8415 29.1211 39.7151C28.0985 39.5886 27.0751 39.2522 26.012 38.6222C24.539 37.7806 23.0665 36.4782 21.3478 34.5437C24.0478 31.1388 25.6843 28.0271 26.2981 25.2531C26.5847 23.9494 26.6259 22.7726 26.5025 21.6789C26.3394 20.6281 25.9708 19.6609 25.3982 18.8201C24.1291 16.9276 22.0014 15.8352 19.6292 15.8352C17.257 15.8352 15.1293 16.9704 13.861 18.8201C13.2884 19.6609 12.9198 20.6281 12.7563 21.6789C12.5928 22.7726 12.6333 23.9914 12.9606 25.2531C13.5741 28.0271 15.2515 31.1804 17.9106 34.5857C16.2332 36.5198 14.7193 37.8234 13.2463 38.6643C12.1825 39.2951 11.1603 39.6315 10.1377 39.7571C9.03333 39.8835 7.96905 39.7151 7.02819 39.3371C5.02387 38.4963 3.59174 36.6038 3.30564 34.4177C3.18303 33.3669 3.26436 32.3161 3.67389 31.1388C3.7961 30.718 4.00127 30.298 4.20562 29.7936C4.49213 29.1208 4.81869 28.4055 5.14648 27.6911L5.18777 27.6076C8.01033 21.343 11.0377 14.9528 14.188 8.73102L14.3106 8.47819C14.6384 7.8482 14.9658 7.17537 15.2928 6.54455C15.6201 5.87172 15.988 5.24089 16.4384 4.69406C17.2975 3.68608 18.4427 3.13883 19.7113 3.13883C20.98 3.13883 22.1252 3.68608 22.9843 4.69406C23.4347 5.24215 23.8025 5.87298 24.1299 6.54455C24.4577 7.17537 24.7851 7.8482 25.1116 8.47819L25.2347 8.73102C28.337 14.9786 31.3241 21.2859 34.1945 27.6496V27.6916C34.5222 28.3652 34.8083 29.1212 35.1357 29.7949C35.3401 30.2984 35.5448 30.7184 35.6674 31.1393C35.994 32.2313 36.1166 33.2829 35.9527 34.3757Z" fill="#2D2D2D"/>
</svg>
