<svg width="124" height="38" viewBox="0 0 124 38" fill="none" xmlns="http://www.w3.org/2000/svg">
<path d="M34.1185 23.6716C32.1197 23.6716 30.2468 22.8197 28.5451 21.4328L28.9595 19.4749L28.9775 19.4024C29.3465 17.3178 30.517 13.8188 34.1185 13.8188C36.8195 13.8188 39.0165 16.0305 39.0165 18.7497C39.0073 21.4599 36.8106 23.6716 34.1185 23.6716ZM34.1185 8.82449C29.5175 8.82449 25.9523 11.8338 24.5029 16.7829C22.2879 13.4381 20.6131 9.42277 19.6318 6.04175H14.6799V19.0125C14.6799 21.5687 12.609 23.6533 10.07 23.6533C7.53094 23.6533 5.46032 21.5687 5.46032 19.0125V6.04175H0.507869V19.0125C0.489853 24.3243 4.7846 28.6841 10.0606 28.6841C15.3369 28.6841 19.6316 24.3243 19.6316 19.0125V16.8373C20.5949 18.8585 21.7743 20.8979 23.206 22.7108L20.1716 37.0683H25.2408L27.4375 26.6536C29.3643 27.8954 31.5793 28.6751 34.1183 28.6751C39.5473 28.6751 43.9682 24.1974 43.9682 18.7315C43.9682 13.2749 39.5473 8.82449 34.1183 8.82449H34.1185Z" fill="#EAEDB6"/>
<path d="M58.9049 9.38623L62.1011 22.357L65.6217 9.38623H69.8172L64.4062 28.131H60.2104L56.8883 15.0784L53.5748 28.1218H49.3793L43.9678 9.37728H48.1636L51.6839 22.3481L54.8801 9.37728H58.9046L58.9049 9.38623ZM79.8561 8.82421C74.4091 8.82421 69.9974 13.2746 69.9974 18.7494C69.9974 24.2334 74.418 28.6748 79.8561 28.6748C85.3034 28.6748 89.724 24.2334 89.724 18.7494C89.724 13.2657 85.3034 8.82421 79.8561 8.82421ZM79.8561 24.5959C76.651 24.5959 74.0579 21.9853 74.0579 18.7586C74.0579 15.5316 76.6599 12.9213 79.8561 12.9213C83.0615 12.9213 85.6544 15.5316 85.6544 18.7586C85.6544 21.9764 83.0615 24.5959 79.8561 24.5959ZM101.708 13.5829C98.8898 13.5829 96.6118 15.8852 96.6118 18.7131V28.1218H92.3889V9.38623H96.6118V12.2686C96.6118 12.2686 98.4125 9.37704 102.113 9.37704H103.409V13.5829H101.708ZM115.879 18.0244C118.877 16.3202 120.912 13.0843 120.912 9.37704H116.689C116.689 12.5041 114.169 15.0421 111.063 15.0421H110.495V0.340088H106.273V28.1215H110.495V19.2933H111C111.414 19.2933 111.954 19.5653 112.197 19.9005L118.193 28.1218H123.253L115.879 18.0244Z" fill="#EAEDB6"/>
</svg>
