<svg width="130" height="36" viewBox="0 0 130 36" fill="none" xmlns="http://www.w3.org/2000/svg">
<path fill-rule="evenodd" clip-rule="evenodd" d="M77.1275 28.2857C76.2637 28.9093 75.3347 29.471 74.4057 29.9704V27.3506C74.9357 27.1634 75.5339 26.9137 76.0651 26.727C77.259 26.2277 78.3239 27.476 77.1262 28.2857H77.1275ZM83.4317 23.9177C83.4317 23.4183 83.2989 23.0438 83.1661 22.8572C82.5691 22.1706 78.1886 21.5464 74.4057 22.6069V24.5407C76.7285 24.354 79.449 24.291 80.1148 25.1007C81.0438 26.1612 79.0524 30.7777 78.1893 32.7739C77.9237 33.3981 78.5244 33.6489 79.1201 33.2114C82.1062 30.8407 83.3672 26.5357 83.4336 24.2893V23.9188L83.4317 23.9177ZM74.4057 29.9698C67.4369 33.9003 58.4103 35.9595 50.5788 35.9595C37.9685 35.9595 26.6856 31.5926 18.1237 24.2928C17.394 23.7316 17.9909 22.9202 18.8541 23.3571C28.0799 28.4088 39.4938 31.4655 51.3092 31.4672C58.7429 31.4672 66.7735 30.1576 74.4063 27.3494V29.9698H74.4057ZM74.4057 22.6052C73.3883 22.9018 72.4255 23.3439 71.5512 23.9159C70.8884 24.3523 71.0206 24.9134 71.6815 24.8516C72.4119 24.7268 73.3408 24.6643 74.4032 24.5395V22.6081L74.4057 22.6052Z" fill="black"/>
<path fill-rule="evenodd" clip-rule="evenodd" d="M96.7699 21.6105V17.8672C99.6251 17.8048 99.7573 13.9366 99.7573 11.6284C99.7573 10.0685 99.6909 8.19661 99.1597 6.69918C98.7619 5.45142 97.9658 4.95208 96.7693 4.89025V1.14639C102.345 1.21055 105.401 5.76642 105.401 11.5648C105.4 17.1806 102.016 21.5498 96.7718 21.6105H96.7699ZM112.766 21.2365H108.983C108.585 21.1741 108.253 20.9244 108.253 20.5499V2.14506C108.319 1.77056 108.585 1.52147 108.983 1.52147H112.567C112.899 1.52147 113.163 1.77231 113.231 2.08264V4.89025H113.298C114.359 2.33231 115.886 1.14639 118.54 1.14639C120.2 1.14639 121.922 1.70639 122.99 3.3304C123.985 4.82958 123.983 7.2621 123.983 9.07045V20.6124C123.917 20.9239 123.651 21.236 123.253 21.236H119.403C119.072 21.1735 118.74 20.9239 118.74 20.6124V10.6927C118.74 8.63352 119.006 5.70167 116.35 5.70167C115.421 5.70167 114.558 6.26284 114.094 7.19851C113.563 8.32144 113.496 9.44495 113.496 10.6921V20.5494C113.496 20.9256 113.167 21.2348 112.764 21.2365H112.766ZM71.8825 4.76541V2.14506C71.8825 1.77056 72.2145 1.45905 72.6129 1.45905H85.1569C85.5553 1.45905 85.8891 1.76822 85.8891 2.14506V4.39149C85.8891 4.76541 85.5577 5.26475 84.9601 6.07617L78.453 14.8099C80.8427 14.7481 83.4298 15.1249 85.6204 16.2455C86.0846 16.5547 86.2161 16.9338 86.2844 17.3054V20.0506C86.2844 20.4245 85.8202 20.862 85.3554 20.6742C81.4391 18.7404 76.3294 18.5526 72.0811 20.6742C71.6169 20.9239 71.1521 20.4239 71.1521 20.0506V17.4303C71.1521 17.0558 71.1521 16.3067 71.6169 15.6207L79.1828 5.45083H72.6123C72.2145 5.44967 71.8813 5.20467 71.8813 4.76541H71.8825ZM96.7693 1.14639V4.89025C93.9166 4.89025 93.7838 8.50869 93.7838 10.7551C93.7838 13.0634 93.7181 17.866 96.7066 17.8672H96.7687V21.6105H96.7035C91.1285 21.6105 88.076 17.0558 88.076 11.3787C88.076 5.63867 91.1942 1.14639 96.7035 1.14639C96.7699 1.14464 96.7718 1.14464 96.7718 1.14639H96.7693ZM59.0066 21.1735V17.8672C59.8692 17.6799 60.5996 17.1182 61.1302 16.2455C61.8606 14.9972 61.8605 13.8748 61.8605 12.4398V11.6914C60.8652 11.6914 59.8692 11.7532 59.0066 11.9411V9.07103C60.002 8.94561 60.9974 8.88378 61.8605 8.82136V8.32202C61.8605 7.44877 61.9263 6.45067 61.3958 5.70225C60.931 5.07808 60.002 4.766 59.2058 4.766H59.0066V0.960301H59.8009C61.6589 0.960301 64.0455 1.46197 65.51 2.76981C67.368 4.39149 67.2352 6.57318 67.2352 8.94561V14.5614C67.2352 16.2472 67.9674 16.9939 68.6314 17.8689C68.8977 18.1781 68.9665 18.5573 68.6314 18.8046C67.9017 19.4288 66.5073 20.5517 65.7111 21.1753C65.4455 21.3625 65.1141 21.3625 64.7828 21.2395C63.5212 20.2414 63.322 19.8044 62.5928 18.8688C61.33 20.1148 60.2645 20.7973 59.0048 21.1735H59.0066ZM59.0066 0.959717V4.766C57.6122 4.89083 56.4847 5.57683 56.1521 6.94943C56.0863 7.26151 55.8201 7.57302 55.4887 7.63602L51.7715 7.1991C51.4396 7.13668 51.1082 6.94943 51.241 6.45009C52.0378 2.52131 55.5545 1.14463 59.0048 0.959717H59.0066ZM59.0066 9.07103V11.9405C57.4136 12.3768 56.1521 13.3125 56.1521 15.3063C56.1521 16.8638 57.0146 17.9255 58.4729 17.9267C58.6721 17.9267 58.8056 17.8648 59.0041 17.8648V21.1712C58.1145 21.3821 57.2004 21.488 56.283 21.4862C53.0971 21.4862 50.5751 19.6149 50.5751 15.9328C50.5751 13.001 52.2345 11.0042 54.6236 10.0685C55.8877 9.50386 57.4782 9.25886 59.0048 9.07045L59.0066 9.07103ZM8.83029 21.1735V17.8672C9.69411 17.6799 10.4903 17.1182 10.9551 16.2455C11.7506 14.9972 11.6849 13.8748 11.6849 12.4398V11.6914C10.6895 11.6914 9.69411 11.7532 8.83029 11.9411V9.07103C9.82628 8.94561 10.8217 8.88378 11.6849 8.82136V8.32202C11.6849 7.44877 11.7506 6.45067 11.2207 5.70225C10.7559 5.07808 9.89268 4.766 9.09651 4.766H8.83029V0.960301H9.6246C11.4832 0.960301 13.8692 1.46197 15.3958 2.76865C17.2543 4.39033 17.0527 6.57201 17.0527 8.94444V14.5602C17.0527 16.2461 17.7849 16.9928 18.511 17.8666C18.7095 18.1758 18.7778 18.5526 18.4446 18.7999C17.7148 19.4241 16.3216 20.547 15.5242 21.1706C15.2586 21.3579 14.9266 21.3579 14.5953 21.233C13.3343 20.2349 13.1351 19.798 12.4053 18.8624C11.1543 20.1148 10.0925 20.7973 8.83277 21.1735H8.83029ZM26.0209 21.2365H22.1716C21.7732 21.1741 21.5076 20.9245 21.5076 20.6129V2.20748C21.5076 1.83297 21.8403 1.52147 22.2386 1.52147H25.7553C26.1537 1.52147 26.4876 1.83064 26.4876 2.14506V4.57816H26.554C27.4836 2.20748 29.2087 1.14639 31.5991 1.14639C33.9876 1.14639 35.5148 2.20806 36.576 4.57816C37.505 2.20748 39.5621 1.14639 41.8191 1.14639C43.4784 1.14639 45.2073 1.77056 46.2685 3.1414C47.463 4.69891 47.2613 6.94476 47.2613 8.94328V20.5482C47.2613 20.9227 46.9293 21.2348 46.4652 21.2348H42.6816C42.2832 21.1724 42.0176 20.9227 42.0176 20.5482V10.817C42.0176 10.0685 42.084 8.07177 41.8848 7.38577C41.6192 6.13742 40.7567 5.7635 39.6285 5.7635C38.6989 5.7635 37.7699 6.32468 37.3715 7.26268C36.9738 8.19836 36.9738 9.7582 36.9738 10.8187V20.5517C36.9738 20.9262 36.6411 21.2383 36.2434 21.2383H32.3934C32.0621 21.1759 31.7301 20.9262 31.7301 20.5517V10.817C31.7301 8.75836 32.0621 5.70109 29.4073 5.70109C26.6204 5.70109 26.752 8.69594 26.752 10.817V20.5499C26.7499 20.7313 26.6723 20.9047 26.5359 21.0331C26.3995 21.1614 26.2151 21.2344 26.0222 21.2365H26.0209ZM8.83029 0.959717V4.766C7.50354 4.89083 6.30897 5.57683 5.97697 6.94943C5.91057 7.26151 5.71138 7.57302 5.31298 7.63602L1.59647 7.1991C1.33149 7.13668 0.933092 6.94943 1.06589 6.45009C1.86207 2.52131 5.44454 1.14463 8.83277 0.959717H8.83029ZM8.83029 9.07103V11.9405C7.23794 12.3768 5.97697 13.3125 5.97697 15.3087C5.97697 16.8662 6.83955 17.9278 8.29785 17.929C8.49643 17.929 8.69563 17.8672 8.82781 17.8672V21.1735C7.93858 21.3849 7.0245 21.4897 6.10729 21.4856C2.92136 21.4856 0.399414 19.6143 0.399414 15.9322C0.399414 13.0004 2.05878 11.0036 4.51432 10.068C5.77778 9.50386 7.30621 9.25886 8.83277 9.07045L8.83029 9.07103Z" fill="black"/>
</svg>
