<svg width="112" height="37" viewBox="0 0 112 37" fill="none" xmlns="http://www.w3.org/2000/svg">
<path d="M14.7861 27.9545C18.9541 27.9545 22.0949 26.595 24.5536 24.0406C27.0846 21.5145 27.8703 17.9781 27.8703 15.1172C27.8703 14.2288 27.802 13.4143 27.6653 12.7302H14.7861V16.5448H23.9415C23.6681 18.6905 22.9479 20.2572 21.8592 21.3471C20.5245 22.6725 18.4428 24.1399 14.7861 24.1399C9.14984 24.1399 4.74183 19.6101 4.74183 13.9904C4.74183 8.37074 9.14984 3.8381 14.7861 3.8381C17.8244 3.8381 20.0487 5.03299 21.6858 6.56563L24.3856 3.875C22.0949 1.69808 19.0566 0.0263672 14.7861 0.0263672C7.06356 0.0263672 0.573242 6.29032 0.573242 13.9904C0.573242 21.6877 7.06356 27.9545 14.7861 27.9545ZM38.2932 27.9545C43.2783 27.9545 47.3438 24.1399 47.3438 18.9601C47.3438 13.752 43.2783 9.9715 38.2932 9.9715C33.2996 9.9715 29.234 13.752 29.234 18.9601C29.234 24.1399 33.2996 27.9545 38.2932 27.9545ZM38.2932 24.4124C35.5572 24.4124 33.1971 22.1645 33.1971 18.9601C33.1971 15.7274 35.5572 13.5164 38.2932 13.5164C41.0235 13.5164 43.3808 15.7274 43.3808 18.9601C43.3808 22.1645 41.0235 24.4124 38.2932 24.4124ZM58.0372 27.9545C63.0251 27.9545 67.0907 24.1399 67.0907 18.9601C67.0907 13.752 63.0251 9.9715 58.0372 9.9715C53.0464 9.9715 48.9809 13.752 48.9809 18.9601C48.9809 24.1399 53.0464 27.9545 58.0372 27.9545ZM58.0372 24.4124C55.3041 24.4124 52.9439 22.1645 52.9439 18.9601C52.9439 15.7274 55.3041 13.5164 58.0372 13.5164C60.7703 13.5164 63.1276 15.7274 63.1276 18.9601C63.1276 22.1645 60.7703 24.4124 58.0372 24.4124ZM77.4424 36.0264C82.0858 36.0264 86.0204 33.3045 86.0204 26.6602V10.5164H82.2595V11.981H82.1229C81.2317 10.9251 79.5235 9.9715 77.3769 9.9715C72.8644 9.9715 68.7334 13.9223 68.7334 18.997C68.7334 24.0406 72.8644 27.9545 77.3769 27.9545C79.5235 27.9545 81.2317 27.0008 82.1229 25.9109H82.2595V27.2052C82.2595 30.6479 80.4147 32.4843 77.4424 32.4843C75.0196 32.4843 73.5135 30.7501 72.8957 29.2799L69.448 30.7132C70.4416 33.1002 73.0694 36.0264 77.4424 36.0264ZM77.7129 24.4124C74.9826 24.4124 72.6907 22.1333 72.6907 18.997C72.6907 15.8296 74.9826 13.5164 77.7129 13.5164C80.4147 13.5164 82.5328 15.8296 82.5328 18.997C82.5328 22.1333 80.4147 24.4124 77.7129 24.4124ZM92.7137 0.98001H88.7507V27.4095H92.7137V0.98001ZM103.578 27.9545C107.709 27.9545 110.103 25.437 111.094 23.9696L108.016 21.9289C106.994 23.4218 105.594 24.4124 103.578 24.4124C101.562 24.4124 100.124 23.4928 99.2049 21.6877L111.265 16.7123L110.855 15.6933C110.103 13.6839 107.811 9.9715 103.134 9.9715C98.4874 9.9715 94.6269 13.6186 94.6269 18.9601C94.6269 24.0037 98.4533 27.9545 103.578 27.9545ZM98.5558 18.6905C98.4533 15.2194 101.255 13.4455 103.27 13.4455C104.842 13.4455 106.174 14.2288 106.621 15.3528L98.5558 18.6905Z" fill="#2D2D2D"/>
</svg>
