<svg width="86" height="36" viewBox="0 0 86 36" fill="none" xmlns="http://www.w3.org/2000/svg">
<path d="M85.5742 18.4043C85.5742 12.4162 82.6519 7.6915 77.0463 7.6915C71.4408 7.6915 68.0269 12.4162 68.0269 18.3649C68.0269 25.4058 72.0518 28.6566 77.7902 28.6566C80.6063 28.6566 82.7183 28.0248 84.3256 27.1431V22.7474C82.7183 23.5502 80.8719 24.0371 78.5341 24.0371C76.236 24.0371 74.217 23.2343 73.9513 20.4969H85.4945C85.5211 20.1942 85.5742 18.9703 85.5742 18.4043ZM73.8982 16.1933C73.8982 13.5612 75.532 12.4557 77.0065 12.4557C78.4544 12.4557 79.9952 13.5612 79.9952 16.1933H73.8982ZM58.9013 7.6915C56.59 7.6915 55.1023 8.77068 54.2787 9.52084L53.9732 8.07316H48.7794V35.0263L54.6772 33.7892L54.6905 27.1826C55.5406 27.8011 56.8025 28.6566 58.8615 28.6566C63.0855 28.6566 66.9377 25.6033 66.9377 18.1806C66.951 11.3897 63.0457 7.6915 58.9013 7.6915ZM57.4933 23.8134C56.1118 23.8134 55.2882 23.3133 54.7171 22.7079L54.6772 14.0218C55.2882 13.3506 56.1384 12.8637 57.4933 12.8637C59.6452 12.8637 61.1329 15.2589 61.1329 18.3122C61.1462 21.4576 59.685 23.8134 57.4933 23.8134ZM46.5744 0.295166V5.05935L40.65 6.30962V1.54544L46.5744 0.295166ZM40.6633 8.08632H46.5877V28.2486H40.6633V8.08632ZM34.3139 9.81038C35.6953 7.29668 38.445 7.80995 39.242 8.08632V13.4559C38.4848 13.219 36.1337 12.8637 34.7389 14.6799V28.2486H28.8544V8.08632H33.9552L34.3139 9.81038ZM22.4917 8.08632H26.9682V13.0611H22.4917V21.3787C22.4917 24.8268 26.211 23.7476 26.9682 23.4449V27.8932C26.1845 28.3144 24.7632 28.6697 22.8238 28.6697C19.3303 28.6697 16.7002 26.4324 16.7002 22.9711L16.7267 4.23023L22.4784 3.01944L22.4917 8.08632ZM6.52515 14.0218C6.52515 16.654 15.5445 15.4037 15.5445 22.3657C15.5445 26.5772 12.1706 28.6566 7.26902 28.6566C5.23667 28.6566 3.01835 28.2617 0.826602 27.3273V22.063C2.80582 23.129 5.32965 23.9319 7.2823 23.9319C8.59735 23.9319 9.54046 23.5765 9.54046 22.4973C9.54046 19.7073 0.574219 20.7601 0.574219 14.285C0.574219 10.1526 3.76222 7.67834 8.54421 7.67834C10.4969 7.67834 12.4495 7.98104 14.4022 8.74436V14.2455C12.6089 13.2848 10.3242 12.7452 8.53093 12.7452C7.29558 12.7584 6.52515 13.1137 6.52515 14.0218Z" fill="#2D2D2D"/>
</svg>
