<svg width="146" height="29" viewBox="0 0 146 29" fill="none" xmlns="http://www.w3.org/2000/svg">
<path d="M96.7691 24.1936C98.6839 24.2368 100.538 23.514 101.927 22.1826L104.485 24.9698C102.796 26.7233 100.454 28.0264 96.8129 28.0264C90.5712 28.0264 86.5361 23.8437 86.5361 18.189C86.5108 16.893 86.7444 15.6051 87.2227 14.4022C87.7011 13.1992 88.4145 12.1059 89.3204 11.1875C90.2264 10.269 91.3063 9.54419 92.4957 9.05626C93.6851 8.56834 94.9596 8.3273 96.2433 8.34754C102.441 8.34754 105.954 13.1094 105.644 19.7132H90.9934C91.5112 22.4561 93.4231 24.2056 96.7571 24.2056L96.7691 24.1936ZM101.218 16.5641C100.82 14.0022 99.3064 12.116 96.2791 12.116C93.463 12.116 91.4992 13.7247 90.9934 16.5641H101.222H101.218ZM0.574219 23.9804L11.8467 12.4136H0.841095V8.78592H17.0767V12.486L5.80419 24.0488H17.236V27.6805H0.574219V23.9804ZM29.8907 24.1895C31.8056 24.2328 33.6598 23.5099 35.049 22.1786L37.6062 24.9658C35.9174 26.7193 33.5752 28.0224 29.9346 28.0224C23.6928 28.0224 19.6578 23.8396 19.6578 18.1849C19.6325 16.8889 19.866 15.6011 20.3444 14.3981C20.8228 13.1952 21.5362 12.1019 22.4421 11.1835C23.3481 10.265 24.428 9.54017 25.6173 9.05225C26.8067 8.56432 28.0813 8.32329 29.365 8.34352C35.5628 8.34352 39.076 13.1054 38.7654 19.7092H24.123C24.6409 22.4521 26.5528 24.2016 29.8868 24.2016L29.8907 24.1895ZM34.348 16.5601C33.9496 13.9982 32.436 12.112 29.4088 12.112C26.5926 12.112 24.6289 13.7207 24.123 16.5601H34.3519H34.348ZM63.1188 18.1809C63.1188 12.1482 67.5919 8.35156 72.5192 8.35156C73.7015 8.33567 74.8729 8.58127 75.9511 9.07109C77.0294 9.56092 77.9884 10.2831 78.7609 11.187V0.0384322H82.7441V27.6282H78.7609V25.0261C78.0032 25.9671 77.0456 26.7239 75.9589 27.2405C74.8722 27.7571 73.6844 28.0202 72.4833 28.0103C67.7035 28.0103 63.1228 24.1895 63.1228 18.1849L63.1188 18.1809ZM78.984 18.1447C78.9526 16.9651 78.5775 15.821 77.9056 14.8555C77.2336 13.8901 76.2947 13.146 75.2061 12.7166C74.1176 12.2871 72.9278 12.1912 71.7855 12.4409C70.6433 12.6906 69.5993 13.2748 68.7842 14.1205C67.9691 14.9661 67.419 16.0357 67.2028 17.1953C66.9865 18.355 67.1137 19.5533 67.5684 20.6403C68.0232 21.7274 68.7852 22.6549 69.7593 23.3069C70.7334 23.959 71.8763 24.3065 73.045 24.3062C76.4706 24.3062 78.98 21.5472 78.98 18.1447H78.984ZM108.249 23.6144L111.857 21.7242C112.335 22.5829 113.035 23.2938 113.883 23.78C114.731 24.2663 115.694 24.5094 116.669 24.4831C118.924 24.4831 120.095 23.3168 120.095 21.9896C120.095 20.4774 117.916 20.1396 115.546 19.6449C112.359 18.9612 109.041 17.9034 109.041 14.0143C109.041 11.0261 111.858 8.26308 116.291 8.3033C119.784 8.3033 122.385 9.7029 123.859 11.9632L120.513 13.8132C120.051 13.122 119.422 12.5612 118.685 12.184C117.948 11.8068 117.128 11.6256 116.303 11.6575C114.16 11.6575 113.068 12.7152 113.068 13.9258C113.068 15.2852 114.797 15.6633 117.506 16.2705C120.589 16.9543 124.078 17.9718 124.078 21.9011C124.078 24.5073 121.824 28.0223 116.486 27.9861C112.582 27.9861 109.834 26.3975 108.253 23.6024L108.249 23.6144ZM134.9 19.2306L131.742 22.7095V27.6161H127.759V0.0263672H131.742V18.0965L140.198 8.72559H145.05L137.721 16.8095L145.241 27.6202H140.732L134.904 19.2306H134.9ZM51.0815 8.34754C46.3414 8.34754 42.3781 11.4444 42.3781 16.5923V27.6322H46.441V17.1031C46.441 14.0063 48.2056 12.1482 51.2209 12.1482C54.2362 12.1482 55.7339 13.9982 55.7339 17.1031V27.6322H59.7729V16.5923C59.7729 11.4524 55.7897 8.34754 51.0695 8.34754" fill="#2D2D2D"/>
</svg>
