<svg width="25" height="25" viewBox="0 0 25 25" fill="none" xmlns="http://www.w3.org/2000/svg">
<path d="M4.3 23.0347C2.8 23.0347 1.5 21.7347 1.5 20.2347V16.6347C1.5 15.0347 2.8 13.8347 4.3 13.8347C5.9 13.8347 7.1 15.1347 7.1 16.6347V20.2347C7.1 21.7347 5.9 23.0347 4.3 23.0347Z" fill="#DD9F00"/>
<path d="M12.5002 23.0347C10.9002 23.0347 9.7002 21.7347 9.7002 20.2347V11.1347C9.7002 9.53467 11.0002 8.33467 12.5002 8.33467C14.1002 8.33467 15.3002 9.63467 15.3002 11.1347V20.2347C15.3002 21.7347 14.1002 23.0347 12.5002 23.0347Z" fill="#DD9F00"/>
<path d="M20.7004 23.0347C19.1004 23.0347 17.9004 21.7347 17.9004 20.2347V3.83467C17.9004 2.23467 19.2004 1.03467 20.7004 1.03467C22.2004 1.03467 23.5004 2.33467 23.5004 3.83467V20.2347C23.5004 21.7347 22.2004 23.0347 20.7004 23.0347Z" fill="#DD9F00"/>
</svg>
