<svg width="23" height="21" viewBox="0 0 23 21" fill="none" xmlns="http://www.w3.org/2000/svg">
<path d="M3.16016 4.49011C3.16016 4.58912 3.16016 4.78714 3.16016 4.88615C1.36016 5.97526 0.160156 7.85645 0.160156 10.0347C0.160156 12.2129 1.36016 14.0941 3.16016 15.1832C3.16016 15.3812 3.16016 15.4802 3.16016 15.6782C3.16016 16.6683 3.46016 17.5594 4.06016 18.2525C4.86016 19.3416 6.16016 20.0347 7.66016 20.0347C8.06016 20.0347 8.36016 20.0347 8.76016 19.9357C9.56016 19.7376 10.1602 18.9456 10.1602 18.0545V15.6782V4.49011V2.01487C10.1602 1.12378 9.56016 0.331698 8.76016 0.133678C8.36016 0.034668 7.96016 0.034668 7.56016 0.034668C5.16016 0.034668 3.16016 2.01487 3.16016 4.49011Z" fill="#478F6C"/>
<path d="M22.1602 10.2347C22.1602 8.03467 20.9602 6.13467 19.1602 5.03467C19.1602 4.93467 19.1602 4.73467 19.1602 4.53467C19.1602 2.03467 17.1602 0.034668 14.6602 0.034668C14.2602 0.034668 13.9602 0.034668 13.5602 0.134668C12.6602 0.334668 12.1602 1.13467 12.1602 2.03467V4.43467V15.6347V18.0347C12.1602 18.9347 12.7602 19.7347 13.5602 19.9347C13.8602 20.0347 14.2602 20.0347 14.6602 20.0347C17.1602 20.0347 19.1602 18.0347 19.1602 15.5347C19.1602 15.4347 19.1602 15.2347 19.1602 15.1347C21.0602 14.3347 22.1602 12.4347 22.1602 10.2347Z" fill="#478F6C"/>
</svg>
