<svg width="30" height="19" viewBox="0 0 30 19" fill="none" xmlns="http://www.w3.org/2000/svg">
<path d="M14.5762 0.242844H5.10951C2.57617 0.242844 0.576172 2.24284 0.576172 4.77618V13.8428C0.576172 16.3762 2.57617 18.3762 5.10951 18.3762H14.5762C17.1095 18.3762 19.1095 16.3762 19.1095 13.8428V4.77618C19.2428 2.24284 17.1095 0.242844 14.5762 0.242844Z" fill="#1F8FFF"/>
<path d="M28.576 2.1095C27.6426 1.57617 26.4426 1.57617 25.5093 2.1095L25.376 2.24284L21.9093 4.64284C21.5093 4.9095 21.376 5.3095 21.376 5.7095V13.1762C21.376 13.5762 21.6426 13.9762 21.9093 14.2428L25.2426 16.6428L25.376 16.7762C25.776 17.0428 26.3093 17.1762 26.8426 17.1762C27.376 17.1762 28.0426 17.0428 28.4426 16.7762C29.2426 16.2428 29.776 15.3095 29.776 14.3762V4.5095C29.9093 3.57617 29.376 2.64284 28.576 2.1095Z" fill="#1F8FFF"/>
</svg>
