<svg width="21" height="21" viewBox="0 0 21 21" fill="none" xmlns="http://www.w3.org/2000/svg">
<path d="M10.1582 0.175781C4.6582 0.175781 0.158203 4.66578 0.158203 10.1958C0.158203 15.1958 3.8182 19.3458 8.5982 20.0958V13.0958H6.0582V10.1958H8.5982V7.98578C8.5982 5.47578 10.0882 4.09578 12.3782 4.09578C13.4682 4.09578 14.6082 4.28578 14.6082 4.28578V6.75578H13.3482C12.1082 6.75578 11.7182 7.52578 11.7182 8.31578V10.1958H14.4982L14.0482 13.0958H11.7182V20.0958C14.0746 19.7236 16.2204 18.5213 17.7681 16.7058C19.3159 14.8904 20.1636 12.5814 20.1582 10.1958C20.1582 4.66578 15.6582 0.175781 10.1582 0.175781Z" fill="#242D3C"/>
</svg>
