<svg width="21" height="21" viewBox="0 0 21 21" fill="none" xmlns="http://www.w3.org/2000/svg">
<path d="M5.9582 0.135742H14.3582C17.5582 0.135742 20.1582 2.73574 20.1582 5.93574V14.3357C20.1582 15.874 19.5471 17.3493 18.4594 18.437C17.3717 19.5247 15.8965 20.1357 14.3582 20.1357H5.9582C2.7582 20.1357 0.158203 17.5357 0.158203 14.3357V5.93574C0.158203 4.39749 0.769273 2.92223 1.85698 1.83452C2.94469 0.746812 4.41995 0.135742 5.9582 0.135742ZM5.7582 2.13574C4.80342 2.13574 3.88775 2.51503 3.21262 3.19016C2.53749 3.86529 2.1582 4.78096 2.1582 5.73574V14.5357C2.1582 16.5257 3.7682 18.1357 5.7582 18.1357H14.5582C15.513 18.1357 16.4287 17.7565 17.1038 17.0813C17.7789 16.4062 18.1582 15.4905 18.1582 14.5357V5.73574C18.1582 3.74574 16.5482 2.13574 14.5582 2.13574H5.7582ZM15.4082 3.63574C15.7397 3.63574 16.0577 3.76744 16.2921 4.00186C16.5265 4.23628 16.6582 4.55422 16.6582 4.88574C16.6582 5.21726 16.5265 5.53521 16.2921 5.76963C16.0577 6.00405 15.7397 6.13574 15.4082 6.13574C15.0767 6.13574 14.7587 6.00405 14.5243 5.76963C14.2899 5.53521 14.1582 5.21726 14.1582 4.88574C14.1582 4.55422 14.2899 4.23628 14.5243 4.00186C14.7587 3.76744 15.0767 3.63574 15.4082 3.63574ZM10.1582 5.13574C11.4843 5.13574 12.7561 5.66253 13.6937 6.60021C14.6314 7.53789 15.1582 8.80966 15.1582 10.1357C15.1582 11.4618 14.6314 12.7336 13.6937 13.6713C12.7561 14.609 11.4843 15.1357 10.1582 15.1357C8.83212 15.1357 7.56035 14.609 6.62267 13.6713C5.68499 12.7336 5.1582 11.4618 5.1582 10.1357C5.1582 8.80966 5.68499 7.53789 6.62267 6.60021C7.56035 5.66253 8.83212 5.13574 10.1582 5.13574ZM10.1582 7.13574C9.36255 7.13574 8.59949 7.45181 8.03688 8.01442C7.47427 8.57703 7.1582 9.34009 7.1582 10.1357C7.1582 10.9314 7.47427 11.6945 8.03688 12.2571C8.59949 12.8197 9.36255 13.1357 10.1582 13.1357C10.9539 13.1357 11.7169 12.8197 12.2795 12.2571C12.8421 11.6945 13.1582 10.9314 13.1582 10.1357C13.1582 9.34009 12.8421 8.57703 12.2795 8.01442C11.7169 7.45181 10.9539 7.13574 10.1582 7.13574Z" fill="#242D3C"/>
</svg>
