<svg width="21" height="21" viewBox="0 0 21 21" fill="none" xmlns="http://www.w3.org/2000/svg">
<path d="M20.2216 7.82395C19.9484 6.91569 19.1289 6.18908 18.2184 6.09826L14.3942 5.5533L12.6642 1.92026C12.2089 0.921176 11.3895 0.376221 10.3879 0.376221C9.38629 0.376221 8.56682 0.921176 8.11155 1.82944L6.38155 5.46247L2.55734 6.09826C1.64681 6.27991 0.827334 6.91569 0.554176 7.82395C0.189965 8.82303 0.463123 9.82212 1.19155 10.5487L4.01418 13.3643L3.37681 17.3607C3.19471 18.3598 3.64997 19.3588 4.46944 19.9038C4.92471 20.1763 5.37997 20.3579 5.92629 20.3579C6.38155 20.3579 6.74576 20.2671 7.10997 20.0855L10.57 18.1781L14.03 20.0855C14.8495 20.5396 15.851 20.4488 16.6705 19.9038C17.49 19.3588 17.9452 18.3598 17.7631 17.3607L17.1258 13.3643L19.9484 10.5487C20.3126 9.82212 20.5858 8.73221 20.2216 7.82395Z" fill="#99A129"/>
</svg>
