<svg width="22" height="18" viewBox="0 0 22 18" fill="none" xmlns="http://www.w3.org/2000/svg">
<path d="M21.6182 2.13574C20.8482 2.48574 20.0182 2.71574 19.1582 2.82574C20.0382 2.29574 20.7182 1.45574 21.0382 0.445742C20.2082 0.945742 19.2882 1.29574 18.3182 1.49574C17.5282 0.635742 16.4182 0.135742 15.1582 0.135742C12.8082 0.135742 10.8882 2.05574 10.8882 4.42574C10.8882 4.76574 10.9282 5.09574 10.9982 5.40574C7.43824 5.22574 4.26824 3.51574 2.15824 0.925742C1.78824 1.55574 1.57824 2.29574 1.57824 3.07574C1.57824 4.56574 2.32824 5.88574 3.48824 6.63574C2.77824 6.63574 2.11824 6.43574 1.53824 6.13574V6.16574C1.53824 8.24574 3.01824 9.98574 4.97824 10.3757C4.34897 10.548 3.68834 10.5719 3.04824 10.4457C3.31985 11.2982 3.85178 12.0442 4.56926 12.5787C5.28674 13.1132 6.15369 13.4094 7.04824 13.4257C5.53187 14.6262 3.65224 15.2751 1.71824 15.2657C1.37824 15.2657 1.03824 15.2457 0.698242 15.2057C2.59824 16.4257 4.85824 17.1357 7.27824 17.1357C15.1582 17.1357 19.4882 10.5957 19.4882 4.92574C19.4882 4.73574 19.4882 4.55574 19.4782 4.36574C20.3182 3.76574 21.0382 3.00574 21.6182 2.13574Z" fill="#242D3C"/>
</svg>
