<svg width="21" height="20" viewBox="0 0 21 20" fill="none" xmlns="http://www.w3.org/2000/svg">
<path d="M10 0C4.5 0 0 4.5 0 10C0 12.6 1 15.1 2.9 17L3 17.1C4.2 18.2 5.6 19.1 7.1 19.6C8.1 19.9 9.1 20 10.1 20C11.1 20 12.1 19.8 13.1 19.6C14.6 19.1 16 18.3 17.2 17.2L17.3 17.1C19.1 15.2 20.2 12.7 20.2 10.1C20 4.5 15.5 0 10 0ZM10 2C14.4 2 18 5.6 18 10C18 11.7 17.5 13.3 16.5 14.6C15.7 13.3 14.5 12.4 13.1 11.8C13.8 11 14.3 10 14.3 8.8C14.3 6.4 12.4 4.5 10 4.5C7.6 4.5 5.7 6.4 5.7 8.8C5.7 10 6.2 11 6.9 11.8C5.5 12.4 4.4 13.4 3.5 14.6C2.5 13.3 2 11.6 2 10C2 5.6 5.6 2 10 2Z" fill="#3D425A"/>
</svg>
