<svg width="51" height="52" viewBox="0 0 51 52" fill="none" xmlns="http://www.w3.org/2000/svg">
<path d="M11.8477 0.997563V1.00072C11.2072 1.00072 10.5709 1.02316 9.94237 1.07189C9.73894 1.08556 9.53445 1.10344 9.33207 1.12483C9.06935 1.15183 8.8091 1.18233 8.54955 1.21703C8.40469 1.23491 8.26299 1.25735 8.11917 1.27663H8.08796C7.97888 1.28996 7.86979 1.31204 7.76001 1.32922C7.68635 1.3429 7.61235 1.35201 7.54149 1.36498C7.32017 1.4053 7.09604 1.44527 6.87577 1.48909C6.56781 1.5515 6.26301 1.61986 5.95962 1.69279C5.9284 1.70155 5.89157 1.70611 5.8593 1.71487C5.80915 1.7282 5.7618 1.73731 5.71514 1.75099L5.68358 1.7594C5.30897 1.85406 4.93823 1.95713 4.5706 2.06792C4.4317 2.10824 4.29562 2.15312 4.15742 2.19624C4.04798 2.232 3.94171 2.26706 3.83297 2.30388C3.753 2.33052 3.67057 2.35717 3.59061 2.38591C3.55939 2.39433 3.5408 2.40344 3.51379 2.41256C3.48257 2.42133 3.45487 2.435 3.42505 2.44341C3.30089 2.48829 3.17426 2.53316 3.0515 2.57909C3.02028 2.58821 2.99819 2.60153 2.97153 2.61029C2.91821 2.63308 2.8649 2.65096 2.81229 2.67375C2.71198 2.71407 2.61166 2.75053 2.50994 2.7905C1.95085 4.18553 1.51343 5.64221 1.21003 7.147C0.886281 8.75447 0.71582 10.4156 0.71582 12.1163C1.42784 22.7861 6.64029 31.2229 15.905 35.8703C16.1597 35.994 16.415 36.1136 16.6728 36.2296C16.7293 36.2524 16.7854 36.2791 16.8415 36.3032C17.0923 36.4137 17.3438 36.5206 17.597 36.6237C19.2712 37.3035 21.0274 37.821 22.8471 38.1561C22.8783 38.1561 22.8783 38.1698 22.8944 38.1698C24.4785 38.4583 26.1087 38.6101 27.7751 38.6101V38.5965C28.2356 38.5965 28.6937 38.5831 29.1486 38.5607C29.2016 38.5607 29.2549 38.5474 29.3075 38.5474C29.4141 38.5337 29.5204 38.5337 29.6274 38.5253C29.6954 38.5253 29.7603 38.5253 29.828 38.5116C30.0497 38.4934 30.2686 38.4759 30.4867 38.4534C30.6698 38.4352 30.8498 38.4131 31.0315 38.3931C31.076 38.3795 31.123 38.3795 31.1672 38.3795C31.3741 38.3528 31.5825 38.3237 31.788 38.2936C32.2387 38.2255 32.6845 38.1481 33.1283 38.0594C33.3408 38.0145 33.5537 37.9703 33.7652 37.9226C33.8743 37.8998 33.9809 37.8721 34.089 37.8451C34.2012 37.6309 34.3138 37.416 34.4222 37.1983C34.4222 37.1846 34.453 37.1667 34.453 37.1482C34.5828 36.8838 34.7077 36.6163 34.8273 36.3467C34.8273 36.3243 34.8589 36.2966 34.8589 36.272C34.9711 36.0206 35.077 35.7679 35.1808 35.5119C35.1808 35.4944 35.1809 35.4807 35.2121 35.4621C35.7712 34.0671 36.2082 32.6111 36.5109 31.1067C36.5109 31.0755 36.5109 31.0398 36.5425 31.0071C36.5737 30.9283 36.5737 30.8487 36.5874 30.7698C36.6182 30.6548 36.6319 30.5398 36.6495 30.4245C36.6807 30.3361 36.6807 30.2502 36.6898 30.1626C36.721 30.0465 36.7301 29.9312 36.7456 29.8144C36.7456 29.7429 36.7768 29.671 36.7768 29.5999C36.808 29.468 36.8171 29.3383 36.8301 29.2061C36.8301 29.1528 36.8301 29.0982 36.8613 29.0445C36.8929 28.8895 36.8974 28.7349 36.9115 28.5789V28.5337C36.9855 27.7445 37.0269 26.9455 37.0269 26.1374C37.0269 24.4359 36.8553 22.7744 36.532 21.1673C36.532 21.106 36.5004 21.0457 36.4916 20.9854C36.4916 20.9398 36.4601 20.8949 36.4601 20.8497C36.4601 20.789 36.4288 20.7252 36.4197 20.6632C36.3885 20.5818 36.3797 20.4998 36.3639 20.4192C36.3327 20.308 36.3138 20.1972 36.2847 20.0871C36.2528 20.0093 36.2443 19.9304 36.225 19.8522C36.225 19.8256 36.225 19.7979 36.1942 19.7702C36.1493 19.6023 36.1054 19.435 36.0577 19.2685C36.0265 19.1731 36.0044 19.076 35.9746 18.981C35.9438 18.8895 35.9188 18.7991 35.8894 18.7083C35.8894 18.6718 35.8582 18.6357 35.8582 18.5992C35.8049 18.4316 35.7515 18.2648 35.6958 18.0996C35.6646 18.0302 35.6509 17.9608 35.6253 17.891C35.4979 17.5271 35.365 17.167 35.2216 16.8112V16.8021C35.19 16.7506 35.1767 16.6983 35.1532 16.6461C34.8206 15.8337 34.4496 15.0417 34.0374 14.2739C33.8957 14.0071 33.7452 13.7435 33.5934 13.4826C31.5572 10.0012 28.7085 7.05095 25.3083 4.89339C25.0834 4.75105 24.8579 4.61326 24.6303 4.47898C24.5899 4.45654 24.5471 4.42955 24.5061 4.40536C24.4086 4.34961 24.3111 4.29527 24.2108 4.23987C24.0662 4.15748 23.9214 4.07299 23.7723 3.99305C23.7411 3.97938 23.7137 3.96185 23.6839 3.94642C23.4626 3.82792 23.2364 3.71257 23.0101 3.60003C22.9624 3.57794 22.9154 3.55375 22.8712 3.53131C22.812 3.50011 22.7495 3.47557 22.691 3.44682C22.4987 3.35532 22.3083 3.26276 22.114 3.17651C22.0782 3.16284 22.0431 3.14461 22.0049 3.12848C21.7716 3.02611 21.5398 2.92724 21.3041 2.83118C18.3876 1.64689 15.2007 0.993042 11.8634 0.993042L11.8477 0.997563ZM45.3212 15.4765C42.2129 15.4765 39.6433 18.0442 39.6433 21.1515C39.6433 24.2592 42.2129 26.8266 45.3212 26.8266C48.4303 26.8266 50.9998 24.2592 50.9998 21.1515C50.9998 18.0442 48.4303 15.4765 45.3212 15.4765ZM3.14234 29.4438C1.59873 32.6976 0.731246 36.3319 0.731246 40.1674C0.731246 41.8685 0.902766 43.5303 1.2251 45.1371C1.52815 46.6419 1.96554 48.0975 2.52529 49.4929C2.67856 49.5542 2.8322 49.6138 2.98687 49.672C3.14997 49.7334 3.31342 49.793 3.47722 49.8501C3.47722 49.8638 3.50844 49.8638 3.52176 49.8638C3.55298 49.8771 3.58069 49.8862 3.6105 49.895C3.75817 49.9451 3.90268 49.9953 4.0514 50.044C4.09174 50.0577 4.12821 50.0707 4.16644 50.0843C4.26956 50.1155 4.37338 50.1492 4.47615 50.1804C4.51719 50.1941 4.55367 50.2028 4.59155 50.2165C4.92897 50.3182 5.26885 50.4121 5.61186 50.5001C5.64728 50.5135 5.68201 50.5177 5.71813 50.5268C5.76303 50.5401 5.80968 50.5492 5.85703 50.5583C6.00154 50.5941 6.14325 50.6271 6.28916 50.6607C6.48453 50.7056 6.67955 50.7484 6.87632 50.7869C8.38383 51.0905 9.93975 51.2574 11.5301 51.2771H11.8475C12.0453 51.2771 12.2396 51.2771 12.435 51.2634H12.6037C12.7486 51.2634 12.8959 51.2504 13.0411 51.2458C13.0944 51.2458 13.147 51.2322 13.2 51.2322C13.3743 51.2192 13.5511 51.2101 13.7261 51.201H13.7906C13.9794 51.1876 14.1663 51.1694 14.3539 51.1508C14.4132 51.1372 14.4721 51.1372 14.5314 51.1333C14.6759 51.1196 14.8204 51.1018 14.966 51.0839C15.0134 51.0705 15.0604 51.0706 15.1102 51.066C15.261 51.0432 15.4139 51.0257 15.5647 51.0025C15.6121 50.9892 15.6587 50.9892 15.7036 50.9801C15.8867 50.9489 16.0705 50.9212 16.2533 50.8886C16.3034 50.8749 16.3532 50.8704 16.4065 50.8567C16.5398 50.8346 16.6724 50.8076 16.8039 50.781C16.8748 50.7673 16.9456 50.7498 17.0133 50.7361C17.1498 50.7052 17.2855 50.6775 17.4213 50.6474C17.4616 50.6337 17.5068 50.6292 17.5486 50.6162C17.7345 50.5713 17.919 50.5275 18.1031 50.4805C18.1389 50.4668 18.1712 50.4623 18.2066 50.4532C18.3339 50.4219 18.4637 50.3855 18.5892 50.3497C18.8607 50.2747 19.1291 50.1955 19.396 50.111C19.436 50.098 19.4752 50.0843 19.517 50.0714C19.7534 49.9949 19.9866 49.9164 20.2192 49.8337C20.2725 49.8154 20.3258 49.7933 20.3784 49.7769C20.6355 49.6832 20.8923 49.5868 21.1469 49.4848C21.1967 49.4627 21.2497 49.4399 21.303 49.4214C21.5278 49.3298 21.7478 49.2366 21.968 49.1395C22.0126 49.122 22.0564 49.1037 22.0978 49.0827C22.3486 48.9705 22.5966 48.8534 22.8424 48.7335C22.8926 48.7111 22.9459 48.6819 22.9961 48.6564C23.2233 48.5435 23.4496 48.4264 23.6734 48.3072C23.7053 48.2935 23.7239 48.2798 23.7474 48.2669C23.9929 48.1354 24.2328 47.9979 24.4724 47.8588C24.5229 47.8318 24.5727 47.7999 24.6204 47.7715C24.8536 47.6337 25.0841 47.4934 25.3117 47.3483V47.335C25.5537 47.1803 25.7933 47.0219 26.0297 46.8596C26.07 46.8326 26.1037 46.8063 26.1419 46.7803C26.3668 46.624 26.5898 46.4655 26.8091 46.3021C26.8091 46.3021 26.8091 46.2884 26.8403 46.2884C27.0683 46.1188 27.2928 45.9434 27.5148 45.7661C27.5502 45.7348 27.5856 45.71 27.6214 45.6826C28.0644 45.3246 28.4948 44.9516 28.9125 44.5653C28.9437 44.5341 28.9743 44.5085 29.0041 44.4794C29.4204 44.0902 29.8227 43.6877 30.2113 43.2709C30.2429 43.2397 30.2706 43.2078 30.3004 43.1766C30.6876 42.7576 31.0598 42.3264 31.4175 41.8829C31.4487 41.8517 31.4708 41.8169 31.4975 41.7847C31.6774 41.5589 31.8552 41.33 32.0282 41.0975C32.1962 40.8689 32.3628 40.6368 32.5255 40.4026C32.5571 40.3714 32.5708 40.3395 32.5901 40.309C32.7532 40.0724 32.9117 39.8319 33.0664 39.5896C33.0664 39.5763 33.0976 39.5581 33.0976 39.5451C33.2484 39.3088 33.3936 39.069 33.5357 38.8278C33.5357 38.8053 33.5669 38.7832 33.5757 38.7629C33.7237 38.5087 33.8679 38.2507 34.0089 37.9905C34.0089 37.9769 34.0089 37.9639 34.0404 37.9502C34.0716 37.9145 34.0808 37.8745 34.0993 37.8373L34.0681 37.8507C33.9797 37.8819 33.8966 37.9176 33.8082 37.9499C33.6423 38.0112 33.4778 38.0705 33.3119 38.1297C33.28 38.1434 33.2561 38.1518 33.2288 38.1609C33.1976 38.1743 33.1699 38.1834 33.1432 38.1921C33.0138 38.2374 32.8833 38.2805 32.7518 38.3226C32.7069 38.3362 32.663 38.3545 32.6188 38.3674C32.4712 38.4162 32.3221 38.4603 32.1734 38.5063C32.1176 38.5241 32.0611 38.5378 32.0019 38.5564C31.8546 38.6013 31.7069 38.6423 31.5599 38.683C31.5126 38.6966 31.4624 38.7096 31.4123 38.7233C31.2586 38.7682 31.105 38.8071 30.95 38.8449C30.8967 38.8586 30.8465 38.8719 30.7932 38.8853C30.6424 38.9207 30.4887 38.9585 30.3362 38.9936C30.1233 39.0413 29.9128 39.0883 29.6988 39.1314C29.2555 39.2204 28.809 39.2986 28.3579 39.3663C28.1513 39.3971 27.9454 39.4255 27.7385 39.4504C27.6936 39.4641 27.6462 39.4641 27.602 39.4641C27.4214 39.4869 27.2401 39.509 27.0577 39.5244C26.8391 39.5472 26.6196 39.5647 26.3993 39.5826C26.3309 39.5963 26.2629 39.5963 26.1983 39.5963C26.0917 39.6093 25.9854 39.6092 25.8785 39.6184C25.8251 39.6184 25.7722 39.632 25.7189 39.632C25.2639 39.6541 24.8062 39.6678 24.3457 39.6678V39.6811C22.6799 39.6811 21.049 39.529 19.4653 39.2401C19.4334 39.2401 19.4334 39.2264 19.4172 39.2264C17.5982 38.8916 15.8425 38.3731 14.1683 37.6932C13.9143 37.5909 13.6625 37.4839 13.4124 37.3731C13.3566 37.3511 13.3005 37.3234 13.2441 37.2988C12.9877 37.1828 12.7302 37.0632 12.4766 36.9391C8.82809 35.1567 5.6377 32.5795 3.12927 29.4346L3.14234 29.4438Z" fill="#8FDCB7"/>
</svg>
